<svg id="圖層_1" data-name="圖層 1" xmlns="http://www.w3.org/2000/svg" viewBox="0 0 1021.33 1021.34">
<defs><style>.cls-1{fill:#3f4464;}.cls-2{fill:#040000;}.cls-3{fill:#3e4362;}</style></defs><path class="cls-1" d="M516.32,1.33C234.29,1.33,5.66,230,5.66,512A510.67,510.67,0,1,0,1027,512C1027,230,798.36,1.33,516.32,1.33ZM760.8,818.63q-249.48,0-498.95,0c-15.61,0-26.1-10.5-25.08-26.27,1.38-21.3,3.65-42.54,5.57-63.81q2.92-32.53,5.91-65.08,3.7-40.59,7.38-81.18,3.48-38.67,6.89-77.34,3.63-40.6,7.34-81.19c2.31-25.78,5.15-51.53,6.69-77.35.93-15.62,10.49-27.64,28.45-27.08,24.38.75,48.81,0,73.21.33,5.27.07,6.2-1.56,6.26-6.43.24-18.52-1.31-37.06,2.23-55.52,10-52.46,53.34-93.91,106.47-101.36,1.05-.14,2.19,0,2.63-1.32h29.81c9.52,2.9,19.52,3.82,28.89,7.55,47,18.74,74.72,52.79,82.62,102.83,2.54,16.1.91,32.33,1.12,48.49.06,4.43,1,5.78,5.63,5.73,25-.24,50.11-.16,75.17-.09,16.47,0,25.57,9.23,26.92,25.67,2.63,32.24,5.78,64.43,8.64,96.66,2.35,26.42,4.56,52.86,6.92,79.28,2.34,26.21,4.83,52.4,7.21,78.6s4.65,52.42,7,78.63q3.59,40,7.22,79.9c1,11.39,2.36,22.76,3,34.16C786.85,808,776.43,818.63,760.8,818.63Z" transform="translate(-5.66 -1.33)"/><g id="圖層_10" data-name="圖層 10"><path class="cls-2" d="M432.15,314.39c.92-17.39-1.68-34.91,2.66-52.16,9.24-36.71,43.38-61.86,82.61-59.07,40.08,2.84,67.29,33.91,71.92,66.51,2.2,15.49.48,31,1.16,46.53.2,4.55-3,3.28-5.25,3.28q-36.91.09-73.83,0c-24.61,0-49.23-.09-73.84.09C433.53,319.63,431.92,318.83,432.15,314.39Z" transform="translate(-5.66 -1.33)"/><path class="cls-2" d="M729.37,770.91Q620.2,770.6,511,770.77c-72.57,0-145.13-.08-217.7.15-5.68,0-6.72-1.57-6.22-6.8q7.19-75.68,14-151.38c4.11-45.75,8-91.52,12-137.27,3-33.94,6.14-67.87,9.08-101.81.41-4.63,1.86-6.45,7-6.33,16.83.39,33.68.25,50.53.06,3.59,0,4.77.84,4.69,4.59-.23,12.3-.15,24.62-.07,36.93.09,14.08,10.16,24.61,23.52,24.75,13.66.16,24.18-10.42,24.34-24.7.13-12.31.16-24.62-.06-36.93-.06-3.66,1-4.64,4.65-4.63q74.51.17,149,0c4.4,0,4.78,1.64,4.73,5.23-.19,11.87-.14,23.75,0,35.63.1,14.88,10.34,25.56,24.25,25.45,13.63-.12,23.56-10.71,23.62-25.32,0-12.09.14-24.19-.07-36.28-.07-3.59.86-4.73,4.59-4.68,17.06.2,34.13.26,51.18,0,4.51-.08,5.9,1.47,6.23,5.64,1.28,16.34,2.76,32.66,4.22,49q3.63,40.27,7.32,80.54,3.48,38.65,6.92,77.32,3.68,40.9,7.39,81.82,2.8,31.25,5.57,62.5c1.19,13.32,2.22,26.66,3.8,39.93C736.14,769.38,735,770.92,729.37,770.91Z" transform="translate(-5.66 -1.33)"/><path class="cls-3" d="M729.37,770.91Q620.2,770.6,511,770.77c-72.57,0-145.13-.08-217.7.15-5.68,0-6.72-1.57-6.22-6.8q7.19-75.68,14-151.38c4.11-45.75,8-91.52,12-137.27,3-33.94,6.14-67.87,9.08-101.81.41-4.63,1.86-6.45,7-6.33,16.83.39,33.68.25,50.53.06,3.59,0,4.77.84,4.69,4.59-.23,12.3-.15,24.62-.07,36.93.09,14.08,10.16,24.61,23.52,24.75,13.66.16,24.18-10.42,24.34-24.7.13-12.31.16-24.62-.06-36.93-.06-3.66,1-4.64,4.65-4.63q74.51.17,149,0c4.4,0,4.78,1.64,4.73,5.23-.19,11.87-.14,23.75,0,35.63.1,14.88,10.34,25.56,24.25,25.45,13.63-.12,23.56-10.71,23.62-25.32,0-12.09.14-24.19-.07-36.28-.07-3.59.86-4.73,4.59-4.68,17.06.2,34.13.26,51.18,0,4.51-.08,5.9,1.47,6.23,5.64,1.28,16.34,2.76,32.66,4.22,49q3.63,40.27,7.32,80.54,3.48,38.65,6.92,77.32,3.68,40.9,7.39,81.82,2.8,31.25,5.57,62.5c1.19,13.32,2.22,26.66,3.8,39.93C736.14,769.38,735,770.92,729.37,770.91Z" transform="translate(-5.66 -1.33)"/><path class="cls-3" d="M590.5,316.2c.2,4.55-3,3.28-5.25,3.28q-36.91.09-73.83,0c-24.61,0-49.23-.09-73.84.09-4.05,0-5.66-.78-5.43-5.22.92-17.39-1.68-34.91,2.66-52.16,9.24-36.71,43.38-61.86,82.61-59.07,40.08,2.84,67.29,33.91,71.92,66.51C591.54,285.16,589.82,300.7,590.5,316.2Z" transform="translate(-5.66 -1.33)"/></g></svg>