<svg id="圖層_1" data-name="圖層 1" xmlns="http://www.w3.org/2000/svg" viewBox="0 0 1021.33 1021.34"><defs><style>.cls-1{fill:#3f4464;}</style></defs><g id="圖層_8" data-name="圖層 8"><path class="cls-1" d="M513.33,2.66C231.3,2.66,2.67,231.29,2.67,513.33a510.67,510.67,0,1,0,1021.33,0C1024,231.29,795.37,2.66,513.33,2.66Zm8.27,227.11A171.57,171.57,0,1,1,350,401.33,171.57,171.57,0,0,1,521.6,229.77Zm-1.07,693.78a409.07,409.07,0,0,1-297.81-128.1c41.1-76.88,102.33-136.88,174.8-169.38a302.26,302.26,0,0,1,249.39,0c71.75,32.17,132.48,91.31,173.57,167.09A409.06,409.06,0,0,1,520.53,923.55Z" transform="translate(-2.67 -2.66)"/></g></svg>