<svg id="圖層_1" data-name="圖層 1" xmlns="http://www.w3.org/2000/svg" viewBox="0 0 961.46 583.49"><defs><style>.cls-1{fill:none;stroke:#172a51;stroke-miterlimit:10;stroke-width:25px;}.cls-2{fill:#17294d;}</style></defs><g id="LOGO"><path class="cls-1" d="M622.2,552.91,794.88,375.2c2.23-2.29,3.63-5.17,5.53-7.74C815,347.82,838.3,256.08,742.69,225.82a75.2,75.2,0,0,0-9.13-2.53c-18.71-3.45-114.17-1.47-116.65,94.35a90.39,90.39,0,0,0,19.56,58.16l.66.84c.47.58,1.28,1.5,1.81,2l261,264a57.86,57.86,0,0,0,48.33,17.05,49.7,49.7,0,0,0,34.94-20.78c16.17-22.16,13.12-54.91-8-72.39a48.53,48.53,0,0,0-26-11,56.82,56.82,0,0,0-46.35,16.84L733.17,743.56a118.7,118.7,0,0,1-54.54,31.52c-39.06,10.08-96.94,13.71-129.28-46.51-2.12-3.94,3.2,5.3.83,1.51-1.26-2-25-56.28,9.06-111.83a68.83,68.83,0,0,1,5.52-7.41Z" transform="translate(-44.58 -209.9)"/><path class="cls-2" d="M81.79,528.47a119,119,0,0,1-17.08-1.2,86.72,86.72,0,0,1-14.83-3.37l2.62-15.82a114.53,114.53,0,0,0,15.88,4.16A80,80,0,0,0,83,513.71q7.78,0,11.92-2.23C97.64,510,99,507.87,99,505.09q0-5.44-8.51-8.67l-14.82-5.8q-11-4.33-17-10.72t-6-14.12a19.15,19.15,0,0,1,8.94-16.88q8.94-6,25.29-6a59.53,59.53,0,0,1,18.06,2.7,48.53,48.53,0,0,1,15.15,7.79l-13.22,12.25a44,44,0,0,0-10.11-6A26,26,0,0,0,87,457.63q-6.39,0-10,2.2a7,7,0,0,0-3.56,6.36,7.29,7.29,0,0,0,2.51,5.21,23.07,23.07,0,0,0,7.16,4.45l14,5.8q10.9,4.58,16.83,10.67t5.92,13.07q0,11.07-9.88,17.08T81.79,528.47Z" transform="translate(-44.58 -209.9)"/><path class="cls-2" d="M147.6,527.3V444.1h17.88v83.2Zm28.85-29.12-8.72-39.32h-4.58l1.16-14.76H175l7.56,37.2h.58l2,16.88Zm4.22,0,2.18-16.88h.87l7.56-37.2H202l1.16,14.76h-4.58l-8.72,39.32ZM200.8,527.3V444.1h17.88v83.2Z" transform="translate(-44.58 -209.9)"/><path class="cls-2" d="M241.89,458.33V444.1H320v14.23Zm29.44,69V444.1h19.18v83.2Z" transform="translate(-44.58 -209.9)"/><path class="cls-2" d="M378.7,528.47q-39.31,0-39.32-42.19,0-43.35,39.32-43.36T418,486.28Q418,528.47,378.7,528.47Zm0-14.76q19.2,0,19.19-27.43,0-28.65-19.19-28.65t-19.18,28.65Q359.52,513.7,378.7,513.71Z" transform="translate(-44.58 -209.9)"/><path class="cls-2" d="M444.15,527.3l-11-83.2H452l6.32,69.43h2l7.71-48.34h17l-6.1,16h-2.91l-5.81,46.11Zm38.59,0-5.82-46.11H474l-6-16h17l7.56,48.34h2L501,444.1h18.9l-11.05,83.2Z" transform="translate(-44.58 -209.9)"/><path class="cls-2" d="M540.19,527.3V444.1h18.45v83.2Zm39.31,0-18.17-65h-7.92V444.1H569l18.17,65h4.87V527.3Zm10.4,0V444.1h18.46v83.2Z" transform="translate(-44.58 -209.9)"/><path class="cls-2" d="M75.32,631.47q-13.8,0-22.27-5.83t-8.47-15.5a21.25,21.25,0,0,1,7.52-16.75q7.53-6.57,21.33-8.27l8,12q-7.92,1.05-12.32,3.8t-4.4,6.68a7.89,7.89,0,0,0,3.38,6.63,14.73,14.73,0,0,0,9,2.51q12.14,0,18.75-8.17t6.61-23.17h19.92q0,22-12.32,34T75.32,631.47ZM108,630.3,71.11,594.67q-7.71-7.32-11.2-13.35a24,24,0,0,1-3.48-12.07q0-12.07,7.45-17.7t23.43-5.63l-.94,14.71q-5,0-7.38,2.11c-1.57,1.41-2.36,3.61-2.36,6.62a15.6,15.6,0,0,0,1.85,7.41,29.06,29.06,0,0,0,5.64,7.12l47.82,46.41Zm-14.1-62.81a6.53,6.53,0,0,0-2-5.07,8,8,0,0,0-5.6-1.79l.94-14.71q13.16,0,20.39,5.63t7.23,15.94Z" transform="translate(-44.58 -209.9)"/><path class="cls-2" d="M179.58,631.47a118.94,118.94,0,0,1-17.08-1.2,86.28,86.28,0,0,1-14.83-3.37l2.62-15.82a114.17,114.17,0,0,0,15.88,4.16,79.81,79.81,0,0,0,14.57,1.47q7.77,0,11.92-2.23t4.14-6.39q0-5.45-8.5-8.67l-14.83-5.8q-11-4.33-17-10.72t-6-14.12a19.15,19.15,0,0,1,8.94-16.88q8.94-6,25.29-6a59.53,59.53,0,0,1,18.06,2.7,48.47,48.47,0,0,1,15.16,7.79l-13.23,12.25a43.74,43.74,0,0,0-10.1-5.95,26.07,26.07,0,0,0-9.81-2.08q-6.41,0-10,2.2a7,7,0,0,0-3.56,6.36,7.28,7.28,0,0,0,2.5,5.21,23.19,23.19,0,0,0,7.16,4.45l14,5.81q10.91,4.56,16.82,10.66t5.93,13.07q0,11.07-9.89,17.08T179.58,631.47Z" transform="translate(-44.58 -209.9)"/><path class="cls-2" d="M246.25,630.3V547.1h19.19v83.2ZM249.3,596V581.73h63.6V596Zm47.1,34.28V547.1h19.19v83.2Z" transform="translate(-44.58 -209.9)"/><path class="cls-2" d="M378.7,631.47q-39.31,0-39.32-42.19,0-43.35,39.32-43.36T418,589.28Q418,631.47,378.7,631.47Zm0-14.76q19.2,0,19.19-27.43,0-28.65-19.19-28.65t-19.18,28.65Q359.52,616.72,378.7,616.71Z" transform="translate(-44.58 -209.9)"/><path class="cls-2" d="M443.27,630.3V547.1h19.19v83.2Zm17.45-23.85V592.21h14.17q9.53,0,14.72-4.21t5.19-11.78q0-7.15-5.19-11t-14.72-3.87H461V547.1h13.88q19.41,0,30,7.35t10.61,20.77q0,14.88-10.61,23.06t-30,8.17Z" transform="translate(-44.58 -209.9)"/></g></svg>